# xmcd
#
# Track frame offsets:
#	150
#	20798
#	37396
#	54872
#	69518
#	84994
#	107084
#	121602
#	138450
#	159481
#	177312
#	194933
#	210942
#	228319
#	244221
#	265409
#	282800
#	303442
#	316805
#	340208
#
# Disc length: 4778 seconds
#
# Revision: 0
# Processed by: cddbd v1.5.2PL0 Copyright (c) Steve Scherf et al.
# Submitted via: EasyCDDAExtractor 15.3.0.1
#
DISCID=2112a814
DTITLE=Yuri - 20 Exitos Originales
DYEAR=2007
DGENRE=Latin
TTITLE0=Llevame A Tu Casa
TTITLE1=Isla Del Sol
TTITLE2=No Puedo Mas
TTITLE3=Mi Vecina
TTITLE4=Cosas Del Amor
TTITLE5=Quien Eres Tu (Love Will Lead You Back)
TTITLE6=Entre Mujer Y Marido
TTITLE7=Me Tienes Que Querer
TTITLE8=Un Romance
TTITLE9=Decir Adios (A Traves De Los Años)
TTITLE10=Quiero Volver A Empezar
TTITLE11=Fascinacion
TTITLE12=Ojos Que No Ven
TTITLE13=Como Te Ame
TTITLE14=De Que Te Vale Fingir
TTITLE15=Sabes Lo Que Pasa
TTITLE16=Juntos
TTITLE17=Hola
TTITLE18=Volver A Empezar
TTITLE19=Carnaval De Oriente
EXTD=
EXTT0=
EXTT1=
EXTT2=
EXTT3=
EXTT4=
EXTT5=
EXTT6=
EXTT7=
EXTT8=
EXTT9=
EXTT10=
EXTT11=
EXTT12=
EXTT13=
EXTT14=
EXTT15=
EXTT16=
EXTT17=
EXTT18=
EXTT19=
PLAYORDER=
